<?xml version="1.0" encoding="UTF-8" standalone="no"?>
<!DOCTYPE svg PUBLIC "-//W3C//DTD SVG 1.1//EN" "http://www.w3.org/Graphics/SVG/1.1/DTD/svg11.dtd">
<svg version="1.1" xmlns="http://www.w3.org/2000/svg" xmlns:xlink="http://www.w3.org/1999/xlink" preserveAspectRatio="xMidYMid meet" viewBox="0 0 150 150" width="150" height="150"><defs><path d="M33.95 0.61C27.76 0.67 22.78 5.73 22.84 11.93C22.89 17.37 26.84 22 32.21 22.89C32.79 22.93 33.37 22.93 33.95 22.89C38.06 22.89 70.9 22.89 75 22.89C91.5 22.89 104.87 36.26 104.87 52.75C104.87 69.25 91.5 82.62 75 82.62C70.9 82.62 38.06 82.62 33.95 82.62C33.37 82.58 32.79 82.58 32.21 82.62C26.66 83.49 22.61 88.34 22.73 93.96C22.73 98.44 22.73 134.28 22.73 138.76C23.06 144.94 28.33 149.7 34.52 149.37C40.25 149.08 44.84 144.49 45.13 138.76C45.13 136.52 45.13 125.35 45.13 105.23C63.05 105.23 73.01 105.23 75 105.23C103.87 105.23 127.27 81.83 127.27 52.97C127.27 24.1 103.87 0.7 75 0.7C75 0.68 38.06 0.61 33.95 0.61Z" id="i20VYYL0mT"></path><path d="M33.95 0.61C27.76 0.67 22.78 5.73 22.84 11.93C22.89 17.37 26.84 22 32.21 22.89C32.79 22.93 33.37 22.93 33.95 22.89C38.06 22.89 70.9 22.89 75 22.89C91.5 22.89 104.87 36.26 104.87 52.75C104.87 69.25 91.5 82.62 75 82.62C70.9 82.62 38.06 82.62 33.95 82.62C33.37 82.58 32.79 82.58 32.21 82.62C26.66 83.49 22.61 88.34 22.73 93.96C22.73 98.44 22.73 134.28 22.73 138.76C23.06 144.94 28.33 149.7 34.52 149.37C40.25 149.08 44.84 144.49 45.13 138.76C45.13 136.52 45.13 125.35 45.13 105.23C63.05 105.23 73.01 105.23 75 105.23C103.87 105.23 127.27 81.83 127.27 52.97C127.27 24.1 103.87 0.7 75 0.7C75 0.68 38.06 0.61 33.95 0.61Z" id="cSYMqCKhj"></path></defs><g><g><g><use xlink:href="#i20VYYL0mT" opacity="1" fill="#05cc98" fill-opacity="1"></use><g><use xlink:href="#i20VYYL0mT" opacity="1" fill-opacity="0" stroke="#000000" stroke-width="1" stroke-opacity="0"></use></g></g><g><use xlink:href="#cSYMqCKhj" opacity="1" fill="#05cc98" fill-opacity="1"></use><g><use xlink:href="#cSYMqCKhj" opacity="1" fill-opacity="0" stroke="#000000" stroke-width="1" stroke-opacity="0"></use></g></g></g></g></svg>